<svg width="519" height="99" viewBox="0 0 519 99" fill="none" xmlns="http://www.w3.org/2000/svg">
<path d="M57 0L114 98.9902H0L57 0Z" fill="#FF3E00"/>
<path fill-rule="evenodd" clip-rule="evenodd" d="M67.7908 50.2226L49.1018 41.5969L49.2116 69.117L38.016 74.287L36.523 70.9105L30.6728 78.9274L40.5369 79.9881L38.9585 76.4185L49.2218 71.679L49.3307 98.9902H52.4899L52.2611 46.5346L66.5125 53.1121L64.3716 57.9511L77.7508 56.5131L69.8159 45.6454L67.7908 50.2226ZM73.4421 70.6976L54.8938 62.1321V98.9902H58.0293V67.0353L72.1734 73.567L70.0486 78.3722L83.3272 76.9442L75.4519 66.1523L73.4421 70.6976Z" fill="#0F0F0F"/>
<path d="M172.66 41.0644C172.66 39.5394 172.12 38.3639 171.039 37.5379C169.975 36.7118 168.045 35.8779 165.249 35.0359C162.453 34.194 160.229 33.2568 158.577 32.2242C155.416 30.2385 153.836 27.6492 153.836 24.4562C153.836 21.6604 154.971 19.357 157.243 17.5461C159.53 15.7351 162.493 14.8297 166.131 14.8297C168.545 14.8297 170.698 15.2745 172.588 16.1641C174.479 17.0536 175.964 18.3245 177.044 19.9766C178.124 21.6128 178.664 23.4316 178.664 25.4332H172.66C172.66 23.6223 172.088 22.2085 170.944 21.1918C169.816 20.1592 168.196 19.643 166.083 19.643C164.113 19.643 162.58 20.0639 161.484 20.9059C160.404 21.7478 159.864 22.9233 159.864 24.4324C159.864 25.7032 160.452 26.7676 161.627 27.6254C162.803 28.4673 164.741 29.2934 167.441 30.1035C170.142 30.8978 172.31 31.8112 173.946 32.8437C175.583 33.8604 176.782 35.0359 177.545 36.3703C178.307 37.6888 178.688 39.2376 178.688 41.0168C178.688 43.9079 177.576 46.2113 175.352 47.9269C173.144 49.6267 170.142 50.4766 166.345 50.4766C163.835 50.4766 161.524 50.0159 159.411 49.0945C157.314 48.1573 155.678 46.8706 154.503 45.2344C153.343 43.5982 152.763 41.6919 152.763 39.5156H158.792C158.792 41.4854 159.443 43.0104 160.746 44.0906C162.048 45.1708 163.915 45.7109 166.345 45.7109C168.442 45.7109 170.015 45.29 171.063 44.448C172.128 43.5902 172.66 42.4624 172.66 41.0644Z" fill="#0F0F0F"/>
<path d="M205.962 42.4465L214.778 15.3062H221.403L208.917 50H203.079L190.64 15.3062H197.241L205.962 42.4465Z" fill="#0F0F0F"/>
<path d="M255.372 34.5117H241.123V45.1867H257.779V50H235.094V15.3062H257.612V20.1672H241.123V29.7461H255.372V34.5117Z" fill="#0F0F0F"/>
<path d="M278.476 45.1867H294.226V50H272.447V15.3062H278.476V45.1867Z" fill="#0F0F0F"/>
<path d="M328.767 20.1672H317.949V50H311.969V20.1672H301.246V15.3062H328.767V20.1672Z" fill="#0F0F0F"/>
<path d="M363.38 34.5117H349.131V45.1867H365.787V50H343.102V15.3062H365.62V20.1672H349.131V29.7461H363.38V34.5117Z" fill="#0F0F0F"/>
<path d="M429.579 41.4219L434.917 15.3062H440.898L432.891 50H427.125L420.525 24.6707L413.781 50H407.991L399.985 15.3062H405.966L411.351 41.3742L417.975 15.3062H423.027L429.579 41.4219Z" fill="#0F0F0F"/>
<path d="M473.437 41.9223H459.998L457.187 50H450.92L464.025 15.3062H469.434L482.564 50H476.273L473.437 41.9223ZM461.69 37.0613H471.746L466.718 22.6691L461.69 37.0613Z" fill="#0F0F0F"/>
<path d="M504.023 31.7477L512.006 15.3062H518.677L507.049 37.2281V50H500.997V37.2281L489.345 15.3062H496.041L504.023 31.7477Z" fill="#0F0F0F"/>
<path d="M163.78 76.3379C163.78 75.7129 163.559 75.2311 163.116 74.8926C162.68 74.554 161.889 74.2122 160.743 73.8672C159.597 73.5221 158.686 73.138 158.009 72.7148C156.713 71.901 156.065 70.8398 156.065 69.5312C156.065 68.3854 156.531 67.4414 157.462 66.6992C158.399 65.957 159.613 65.5859 161.104 65.5859C162.094 65.5859 162.976 65.7682 163.751 66.1328C164.526 66.4974 165.134 67.0182 165.577 67.6953C166.02 68.3659 166.241 69.1113 166.241 69.9316H163.78C163.78 69.1895 163.546 68.61 163.077 68.1934C162.615 67.7702 161.951 67.5586 161.085 67.5586C160.277 67.5586 159.649 67.7311 159.2 68.0762C158.757 68.4212 158.536 68.903 158.536 69.5215C158.536 70.0423 158.777 70.4785 159.259 70.8301C159.74 71.1751 160.535 71.5137 161.641 71.8457C162.748 72.1712 163.637 72.5456 164.307 72.9688C164.978 73.3854 165.47 73.8672 165.782 74.4141C166.095 74.9544 166.251 75.5892 166.251 76.3184C166.251 77.5033 165.795 78.4473 164.884 79.1504C163.979 79.847 162.748 80.1953 161.192 80.1953C160.164 80.1953 159.216 80.0065 158.35 79.6289C157.491 79.2448 156.82 78.7174 156.339 78.0469C155.863 77.3763 155.626 76.5951 155.626 75.7031H158.096C158.096 76.5104 158.363 77.1354 158.897 77.5781C159.431 78.0208 160.196 78.2422 161.192 78.2422C162.052 78.2422 162.696 78.0697 163.126 77.7246C163.562 77.373 163.78 76.9108 163.78 76.3379Z" fill="#2D2D2D"/>
<path d="M173.022 65.7812L177.123 76.6797L181.215 65.7812H184.409V80H181.948V75.3125L182.192 69.043L177.993 80H176.225L172.036 69.0527L172.28 75.3125V80H169.819V65.7812H173.022Z" fill="#2D2D2D"/>
<path d="M196.873 76.6895H191.365L190.213 80H187.645L193.016 65.7812H195.232L200.613 80H198.035L196.873 76.6895ZM192.059 74.6973H196.18L194.119 68.7988L192.059 74.6973Z" fill="#2D2D2D"/>
<path d="M206.105 78.0273H212.56V80H203.634V65.7812H206.105V78.0273Z" fill="#2D2D2D"/>
<path d="M218.325 78.0273H224.78V80H215.855V65.7812H218.325V78.0273Z" fill="#2D2D2D"/>
<path d="M241.887 76.3379C241.887 75.7129 241.666 75.2311 241.223 74.8926C240.787 74.554 239.996 74.2122 238.85 73.8672C237.704 73.5221 236.793 73.138 236.116 72.7148C234.82 71.901 234.172 70.8398 234.172 69.5312C234.172 68.3854 234.638 67.4414 235.569 66.6992C236.506 65.957 237.72 65.5859 239.211 65.5859C240.201 65.5859 241.083 65.7682 241.858 66.1328C242.633 66.4974 243.241 67.0182 243.684 67.6953C244.127 68.3659 244.348 69.1113 244.348 69.9316H241.887C241.887 69.1895 241.653 68.61 241.184 68.1934C240.722 67.7702 240.058 67.5586 239.192 67.5586C238.385 67.5586 237.756 67.7311 237.307 68.0762C236.864 68.4212 236.643 68.903 236.643 69.5215C236.643 70.0423 236.884 70.4785 237.366 70.8301C237.847 71.1751 238.642 71.5137 239.748 71.8457C240.855 72.1712 241.744 72.5456 242.414 72.9688C243.085 73.3854 243.577 73.8672 243.889 74.4141C244.202 74.9544 244.358 75.5892 244.358 76.3184C244.358 77.5033 243.902 78.4473 242.991 79.1504C242.086 79.847 240.855 80.1953 239.299 80.1953C238.271 80.1953 237.323 80.0065 236.457 79.6289C235.598 79.2448 234.927 78.7174 234.446 78.0469C233.97 77.3763 233.733 76.5951 233.733 75.7031H236.204C236.204 76.5104 236.47 77.1354 237.004 77.5781C237.538 78.0208 238.303 78.2422 239.299 78.2422C240.159 78.2422 240.803 78.0697 241.233 77.7246C241.669 77.373 241.887 76.9108 241.887 76.3379Z" fill="#2D2D2D"/>
<path d="M250.396 74.7168V80H247.926V65.7812H253.365C254.954 65.7812 256.214 66.1947 257.145 67.0215C258.082 67.8483 258.551 68.9421 258.551 70.3027C258.551 71.696 258.092 72.7799 257.174 73.5547C256.262 74.3294 254.983 74.7168 253.336 74.7168H250.396ZM250.396 72.7344H253.365C254.244 72.7344 254.915 72.5293 255.377 72.1191C255.839 71.7025 256.07 71.1035 256.07 70.3223C256.07 69.554 255.836 68.9421 255.367 68.4863C254.898 68.0241 254.254 67.7865 253.434 67.7734H250.396V72.7344Z" fill="#2D2D2D"/>
<path d="M268.339 76.6895H262.832L261.679 80H259.111L264.482 65.7812H266.699L272.08 80H269.502L268.339 76.6895ZM263.525 74.6973H267.646L265.586 68.7988L263.525 74.6973Z" fill="#2D2D2D"/>
<path d="M286.706 74.5215H283.952V80H281.481V65.7812H286.481C288.122 65.7812 289.388 66.1491 290.28 66.8848C291.172 67.6204 291.618 68.6849 291.618 70.0781C291.618 71.0286 291.387 71.8262 290.925 72.4707C290.469 73.1087 289.831 73.6003 289.011 73.9453L292.204 79.873V80H289.557L286.706 74.5215ZM283.952 72.5391H286.491C287.324 72.5391 287.975 72.3307 288.444 71.9141C288.913 71.4909 289.147 70.9147 289.147 70.1855C289.147 69.4238 288.929 68.8346 288.493 68.418C288.063 68.0013 287.419 67.7865 286.559 67.7734H283.952V72.5391Z" fill="#2D2D2D"/>
<path d="M306.709 73.2617C306.709 74.6549 306.468 75.8789 305.987 76.9336C305.505 77.9818 304.815 78.7891 303.916 79.3555C303.024 79.9154 301.996 80.1953 300.83 80.1953C299.678 80.1953 298.649 79.9154 297.745 79.3555C296.846 78.7891 296.149 77.985 295.655 76.9434C295.166 75.9017 294.919 74.7005 294.913 73.3398V72.5391C294.913 71.1523 295.157 69.9284 295.645 68.8672C296.14 67.806 296.833 66.9954 297.725 66.4355C298.623 65.8691 299.652 65.5859 300.811 65.5859C301.97 65.5859 302.995 65.8659 303.887 66.4258C304.786 66.9792 305.479 67.7799 305.967 68.8281C306.455 69.8698 306.703 71.084 306.709 72.4707V73.2617ZM304.239 72.5195C304.239 70.944 303.939 69.7363 303.34 68.8965C302.748 68.0566 301.905 67.6367 300.811 67.6367C299.743 67.6367 298.907 68.0566 298.301 68.8965C297.702 69.7298 297.396 70.9115 297.383 72.4414V73.2617C297.383 74.8242 297.686 76.0319 298.291 76.8848C298.903 77.7376 299.75 78.1641 300.83 78.1641C301.924 78.1641 302.764 77.7474 303.35 76.9141C303.942 76.0807 304.239 74.8633 304.239 73.2617V72.5195Z" fill="#2D2D2D"/>
<path d="M320.971 65.7812V75.2832C320.971 76.7936 320.486 77.9915 319.516 78.877C318.552 79.7559 317.266 80.1953 315.658 80.1953C314.031 80.1953 312.738 79.7624 311.781 78.8965C310.824 78.0241 310.346 76.8164 310.346 75.2734V65.7812H312.807V75.293C312.807 76.2435 313.048 76.9694 313.529 77.4707C314.011 77.972 314.721 78.2227 315.658 78.2227C317.559 78.2227 318.51 77.2201 318.51 75.2148V65.7812H320.971Z" fill="#2D2D2D"/>
<path d="M335.291 67.7734H330.857V80H328.406V67.7734H324.011V65.7812H335.291V67.7734Z" fill="#2D2D2D"/>
<path d="M346.876 73.6523H341.036V78.0273H347.863V80H338.566V65.7812H347.794V67.7734H341.036V71.6992H346.876V73.6523Z" fill="#2D2D2D"/>
<path d="M356.499 74.5215H353.745V80H351.274V65.7812H356.274C357.915 65.7812 359.181 66.1491 360.073 66.8848C360.965 67.6204 361.411 68.6849 361.411 70.0781C361.411 71.0286 361.18 71.8262 360.718 72.4707C360.262 73.1087 359.624 73.6003 358.804 73.9453L361.997 79.873V80H359.35L356.499 74.5215ZM353.745 72.5391H356.284C357.117 72.5391 357.768 72.3307 358.237 71.9141C358.706 71.4909 358.94 70.9147 358.94 70.1855C358.94 69.4238 358.722 68.8346 358.286 68.418C357.856 68.0013 357.212 67.7865 356.352 67.7734H353.745V72.5391Z" fill="#2D2D2D"/>
<path d="M379.729 73.9746H374.006V80H371.535V65.7812H380.568V67.7734H374.006V72.002H379.729V73.9746Z" fill="#2D2D2D"/>
<path d="M395.279 73.2617C395.279 74.6549 395.038 75.8789 394.556 76.9336C394.074 77.9818 393.384 78.7891 392.486 79.3555C391.594 79.9154 390.565 80.1953 389.4 80.1953C388.248 80.1953 387.219 79.9154 386.314 79.3555C385.416 78.7891 384.719 77.985 384.224 76.9434C383.736 75.9017 383.489 74.7005 383.482 73.3398V72.5391C383.482 71.1523 383.726 69.9284 384.214 68.8672C384.709 67.806 385.403 66.9954 386.295 66.4355C387.193 65.8691 388.222 65.5859 389.38 65.5859C390.539 65.5859 391.565 65.8659 392.457 66.4258C393.355 66.9792 394.048 67.7799 394.537 68.8281C395.025 69.8698 395.272 71.084 395.279 72.4707V73.2617ZM392.808 72.5195C392.808 70.944 392.509 69.7363 391.91 68.8965C391.317 68.0566 390.474 67.6367 389.38 67.6367C388.313 67.6367 387.476 68.0566 386.871 68.8965C386.272 69.7298 385.966 70.9115 385.953 72.4414V73.2617C385.953 74.8242 386.255 76.0319 386.861 76.8848C387.473 77.7376 388.319 78.1641 389.4 78.1641C390.494 78.1641 391.334 77.7474 391.92 76.9141C392.512 76.0807 392.808 74.8633 392.808 73.2617V72.5195Z" fill="#2D2D2D"/>
<path d="M404.364 74.5215H401.611V80H399.14V65.7812H404.14C405.78 65.7812 407.047 66.1491 407.939 66.8848C408.831 67.6204 409.277 68.6849 409.277 70.0781C409.277 71.0286 409.045 71.8262 408.583 72.4707C408.127 73.1087 407.489 73.6003 406.669 73.9453L409.863 79.873V80H407.216L404.364 74.5215ZM401.611 72.5391H404.15C404.983 72.5391 405.634 72.3307 406.103 71.9141C406.572 71.4909 406.806 70.9147 406.806 70.1855C406.806 69.4238 406.588 68.8346 406.152 68.418C405.722 68.0013 405.077 67.7865 404.218 67.7734H401.611V72.5391Z" fill="#2D2D2D"/>
<path d="M426.832 76.3379C426.832 75.7129 426.611 75.2311 426.168 74.8926C425.732 74.554 424.941 74.2122 423.795 73.8672C422.649 73.5221 421.738 73.138 421.061 72.7148C419.765 71.901 419.118 70.8398 419.118 69.5312C419.118 68.3854 419.583 67.4414 420.514 66.6992C421.452 65.957 422.666 65.5859 424.157 65.5859C425.146 65.5859 426.028 65.7682 426.803 66.1328C427.578 66.4974 428.187 67.0182 428.629 67.6953C429.072 68.3659 429.293 69.1113 429.293 69.9316H426.832C426.832 69.1895 426.598 68.61 426.129 68.1934C425.667 67.7702 425.003 67.5586 424.137 67.5586C423.33 67.5586 422.702 67.7311 422.252 68.0762C421.81 68.4212 421.588 68.903 421.588 69.5215C421.588 70.0423 421.829 70.4785 422.311 70.8301C422.793 71.1751 423.587 71.5137 424.694 71.8457C425.8 72.1712 426.689 72.5456 427.36 72.9688C428.03 73.3854 428.522 73.8672 428.834 74.4141C429.147 74.9544 429.303 75.5892 429.303 76.3184C429.303 77.5033 428.847 78.4473 427.936 79.1504C427.031 79.847 425.8 80.1953 424.245 80.1953C423.216 80.1953 422.269 80.0065 421.403 79.6289C420.543 79.2448 419.873 78.7174 419.391 78.0469C418.916 77.3763 418.678 76.5951 418.678 75.7031H421.149C421.149 76.5104 421.416 77.1354 421.95 77.5781C422.483 78.0208 423.248 78.2422 424.245 78.2422C425.104 78.2422 425.748 78.0697 426.178 77.7246C426.614 77.373 426.832 76.9108 426.832 76.3379Z" fill="#2D2D2D"/>
<path d="M437.881 76.9043L441.494 65.7812H444.209L439.092 80H436.699L431.602 65.7812H434.307L437.881 76.9043Z" fill="#2D2D2D"/>
<path d="M455.531 73.6523H449.691V78.0273H456.517V80H447.22V65.7812H456.449V67.7734H449.691V71.6992H455.531V73.6523Z" fill="#2D2D2D"/>
<path d="M462.4 78.0273H468.855V80H459.929V65.7812H462.4V78.0273Z" fill="#2D2D2D"/>
<path d="M480.411 67.7734H475.977V80H473.526V67.7734H469.132V65.7812H480.411V67.7734Z" fill="#2D2D2D"/>
<path d="M491.996 73.6523H486.157V78.0273H492.983V80H483.686V65.7812H492.914V67.7734H486.157V71.6992H491.996V73.6523Z" fill="#2D2D2D"/>
<path d="M505.138 71.8066H506.584C507.313 71.8001 507.889 71.6113 508.312 71.2402C508.742 70.8691 508.957 70.332 508.957 69.6289C508.957 68.9518 508.778 68.4277 508.42 68.0566C508.068 67.679 507.528 67.4902 506.798 67.4902C506.16 67.4902 505.636 67.6758 505.226 68.0469C504.816 68.4115 504.611 68.89 504.611 69.4824H502.238C502.238 68.7533 502.43 68.0892 502.814 67.4902C503.205 66.8913 503.745 66.4258 504.435 66.0938C505.132 65.7552 505.91 65.5859 506.769 65.5859C508.188 65.5859 509.302 65.944 510.109 66.6602C510.923 67.3698 511.33 68.3594 511.33 69.6289C511.33 70.2669 511.125 70.8691 510.714 71.4355C510.311 71.9954 509.787 72.4186 509.142 72.7051C509.923 72.972 510.516 73.3919 510.92 73.9648C511.33 74.5378 511.535 75.2214 511.535 76.0156C511.535 77.2917 511.095 78.3073 510.216 79.0625C509.344 79.8177 508.195 80.1953 506.769 80.1953C505.402 80.1953 504.282 79.8307 503.41 79.1016C502.537 78.3724 502.101 77.4023 502.101 76.1914H504.474C504.474 76.8164 504.683 77.3242 505.099 77.7148C505.522 78.1055 506.089 78.3008 506.798 78.3008C507.534 78.3008 508.114 78.1055 508.537 77.7148C508.96 77.3242 509.172 76.7578 509.172 76.0156C509.172 75.2669 508.95 74.6908 508.507 74.2871C508.065 73.8835 507.407 73.6816 506.535 73.6816H505.138V71.8066Z" fill="#2D2D2D"/>
</svg>
